<svg xmlns="http://www.w3.org/2000/svg" width="32" height="32" viewBox="0 0 32 32" fill="none">
    <g clip-path="url(#clip0_74_552)">
        <path d="M30.3547 6.088C29.8675 5.88505 29.3309 5.8317 28.8132 5.93476C28.2956 6.03781 27.8203 6.2926 27.448 6.66667L24 10.1147L17.8853 4C17.3853 3.50008 16.7071 3.21924 16 3.21924C15.2929 3.21924 14.6147 3.50008 14.1147 4L8 10.1147L4.552 6.66667C4.17906 6.29384 3.70396 6.03996 3.18675 5.93711C2.66954 5.83427 2.13345 5.88707 1.64625 6.08886C1.15906 6.29065 0.74262 6.63235 0.449596 7.07078C0.156571 7.50921 0.000112598 8.02467 0 8.552L0 22.6667C0.00211714 24.4341 0.705176 26.1286 1.95496 27.3784C3.20474 28.6282 4.89921 29.3312 6.66667 29.3333H25.3333C27.1008 29.3312 28.7953 28.6282 30.045 27.3784C31.2948 26.1286 31.9979 24.4341 32 22.6667V8.552C32.0001 8.02463 31.8439 7.50905 31.551 7.07047C31.2582 6.63189 30.8418 6.28999 30.3547 6.088Z" fill="#C7F064"/>
    </g>
    <defs>
        <clipPath id="clip0_74_552">
            <rect width="32" height="32" fill="white"/>
        </clipPath>
    </defs>
</svg>