<?xml version="1.0"?>
<svg width="464" height="285" xmlns="http://www.w3.org/2000/svg" xmlns:svg="http://www.w3.org/2000/svg">
 <mask height="53" id="a" maskUnits="userSpaceOnUse" width="438" x="13.5" y="290">
  <path d="m13.5,290l438,0l0,53l-438,0l0,-53z" fill="#fff" id="svg_1"/>
  <path d="m16.79,339l0,-5.13l4.54,-0.88l0,-30.61l-4.54,-0.88l0,-5.16l17.67,0l0,5.16l-4.57,0.88l0,12.3l17.4,0l0,-12.3l-4.57,-0.88l0,-5.16l17.67,0l0,5.16l-4.57,0.88l0,30.61l4.57,0.88l0,5.13l-17.67,0l0,-5.13l4.57,-0.88l0,-11.72l-17.4,0l0,11.72l4.57,0.88l0,5.13l-17.67,0zm61.89,0.62c-3.15,0 -5.65,-0.84 -7.5,-2.52c-1.86,-1.7 -2.79,-4.01 -2.79,-6.92c0,-1.99 0.54,-3.74 1.61,-5.24c1.1,-1.51 2.7,-2.69 4.81,-3.55c2.13,-0.86 4.74,-1.29 7.85,-1.29l4.19,0l0,-2.34c0,-1.52 -0.45,-2.75 -1.35,-3.69c-0.88,-0.96 -2.2,-1.44 -3.98,-1.44c-0.92,0 -1.74,0.12 -2.46,0.35a7.18,7.18 0 0 0 -1.99,0.94l-0.68,4.19l-6.15,0l-0.12,-8.23a26.6,26.6 0 0 1 5.39,-2.29c1.94,-0.58 4.09,-0.88 6.48,-0.88c4.14,0 7.41,0.97 9.81,2.9c2.4,1.92 3.61,4.66 3.61,8.24l0,14.35c0.02,0.41 0.05,0.81 0.11,1.2l3.31,0.47l0,5.13l-10.6,0a43.65,43.65 0 0 1 -0.65,-1.76a10.97,10.97 0 0 1 -0.47,-1.87a12.16,12.16 0 0 1 -3.6,3.1c-1.37,0.76 -2.98,1.15 -4.83,1.15zm2.28,-6.33a7.62,7.62 0 0 0 3.4,-0.79c1.07,-0.55 1.9,-1.26 2.49,-2.14l0,-5.01l-4.22,0c-1.87,0 -3.3,0.43 -4.28,1.29c-0.95,0.86 -1.43,1.89 -1.43,3.1c0,1.14 0.35,2.01 1.05,2.64c0.73,0.6 1.72,0.91 2.99,0.91zm40.03,6.33c-3.04,0 -5.68,-0.69 -7.91,-2.06c-2.2,-1.36 -3.9,-3.25 -5.1,-5.65c-1.19,-2.42 -1.78,-5.18 -1.78,-8.29l0,-0.88c0,-3.12 0.6,-5.89 1.81,-8.29c1.21,-2.4 2.92,-4.29 5.13,-5.65c2.21,-1.39 4.8,-2.08 7.79,-2.08c2.86,0 5.31,0.44 7.36,1.34c2.07,0.88 3.75,1.91 5.04,3.08l-0.06,9.08l-6.45,0l-1.14,-5.65c-0.47,-0.47 -1.06,-0.85 -1.79,-1.15a5.8,5.8 0 0 0 -2.2,-0.44c-1.56,0 -2.86,0.4 -3.89,1.18c-1.02,0.78 -1.78,1.89 -2.29,3.34c-0.51,1.44 -0.76,3.19 -0.76,5.24l0,0.88c0,2.17 0.28,3.95 0.85,5.36c0.57,1.39 1.32,2.41 2.26,3.08a5.48,5.48 0 0 0 3.19,0.99c1.5,0 2.7,-0.39 3.6,-1.17c0.92,-0.8 1.55,-1.92 1.88,-3.37l7.32,0l0.09,0.18c-0.33,2.24 -1,4.19 -1.99,5.83c-0.98,1.64 -2.36,2.9 -4.16,3.78c-1.78,0.88 -4.04,1.31 -6.8,1.31l0,0.01zm20.52,-0.62l0,-5.13l4.13,-0.88l0,-33.66l-4.57,-0.88l0,-5.15l13.1,0l0,39.69l3.69,0.88l0,5.13l-16.35,0zm20.19,0l0,-4.86l2.4,-0.56l-0.06,-0.12l-6.27,-8.52l5.45,-5.6l10.4,13.62l3.93,0.91l0,5.13l-15.85,0zm-8.44,-8.67l-4.1,-4.78l13.77,-12.6l0.06,-0.08l-3.26,-0.47l0,-5.1l16.5,0l0,5.16l-4.1,1.02l-18.87,16.85zm41.08,8.67l0,-5.13l4.57,-0.88l0,-30.05l-7.76,0l-0.47,5.09l-6.47,0l0,-11.69l38.05,0l0,11.69l-6.5,0l-0.47,-5.09l-7.82,0l0,30.05l4.6,0.88l0,5.13l-17.73,0zm34.85,0l0,-5.13l4.13,-0.88l0,-33.66l-4.57,-0.88l0,-5.15l13.09,0l0,18.04c1,-1.46 2.23,-2.59 3.69,-3.4c1.49,-0.81 3.17,-1.23 5.04,-1.23c3.19,0 5.71,1.07 7.56,3.2c1.88,2.11 2.81,5.38 2.81,9.81l0,13.27l4.11,0.88l0,5.13l-16.35,0l0,-5.13l3.69,-0.88l0,-13.33c0,-2.28 -0.43,-3.9 -1.29,-4.86c-0.86,-0.96 -2.12,-1.43 -3.78,-1.43c-1.15,0 -2.21,0.24 -3.16,0.73c-0.94,0.47 -1.71,1.16 -2.32,2.08l0,16.81l3.69,0.88l0,5.13l-16.34,0zm57.63,0.62c-3.02,0 -5.67,-0.67 -7.93,-2c-2.27,-1.35 -4.03,-3.19 -5.28,-5.53c-1.23,-2.35 -1.84,-5.02 -1.84,-8.03l0,-1.17c0,-3.15 0.58,-5.93 1.75,-8.35c1.18,-2.44 2.83,-4.36 4.95,-5.75c2.15,-1.4 4.68,-2.1 7.59,-2.08c2.87,0 5.29,0.57 7.24,1.7c1.95,1.14 3.44,2.77 4.45,4.9c1.02,2.13 1.53,4.7 1.53,7.73l0,4.66l-18.64,0l-0.05,0.17c0.11,1.39 0.45,2.63 1.02,3.73a6.57,6.57 0 0 0 2.46,2.54c1.06,0.61 2.34,0.91 3.84,0.91c1.56,0 3.02,-0.19 4.36,-0.58a17.23,17.23 0 0 0 3.99,-1.79l2.31,5.27c-1.31,1.06 -2.96,1.94 -4.95,2.64c-1.97,0.68 -4.24,1.02 -6.79,1.02l-0.01,0.01zm-6.12,-19.57l10.58,0l0,-0.77c0,-1.29 -0.18,-2.39 -0.53,-3.31c-0.33,-0.93 -0.88,-1.66 -1.64,-2.16c-0.74,-0.51 -1.71,-0.77 -2.9,-0.77c-1.13,0 -2.09,0.31 -2.87,0.91c-0.78,0.59 -1.4,1.4 -1.85,2.43c-0.43,1.04 -0.72,2.21 -0.88,3.52l0.09,0.15zm26.53,18.95l0,-5.13l4.54,-0.88l0,-30.61l-4.54,-0.88l0,-5.16l20.21,0c3.28,0 6.09,0.51 8.44,1.53c2.34,1.01 4.14,2.47 5.39,4.36c1.27,1.9 1.9,4.17 1.9,6.83c0,2.5 -0.62,4.73 -1.87,6.71c-1.25,1.97 -2.99,3.52 -5.22,4.66c-2.22,1.13 -4.79,1.7 -7.7,1.72l-8.06,0l0,10.84l4.57,0.88l0,5.13l-17.66,0zm27.45,0l-7.18,-18.43l7.7,-1.9l6.22,14.35l3.63,0.85l0,5.13l-10.37,0zm-14.36,-23.44l6.98,0c2.45,0 4.29,-0.51 5.5,-1.55c1.23,-1.06 1.85,-2.58 1.85,-4.57c0,-1.97 -0.61,-3.55 -1.82,-4.72c-1.21,-1.19 -3.01,-1.78 -5.39,-1.78l-7.12,0l0,12.62zm47.68,24.06c-3.13,0 -5.81,-0.69 -8.06,-2.06c-2.24,-1.36 -3.96,-3.26 -5.15,-5.68c-1.2,-2.44 -1.79,-5.24 -1.79,-8.41l0,-0.61c0,-3.15 0.59,-5.93 1.79,-8.35c1.19,-2.44 2.9,-4.35 5.12,-5.71c2.25,-1.39 4.92,-2.08 8.03,-2.08c3.14,0 5.83,0.69 8.06,2.08c2.22,1.36 3.93,3.26 5.12,5.68c1.19,2.42 1.79,5.21 1.79,8.38l0,0.61c0,3.17 -0.6,5.97 -1.79,8.41c-1.19,2.42 -2.9,4.32 -5.12,5.68c-2.23,1.37 -4.9,2.06 -8,2.06zm0,-6.57c1.48,0 2.69,-0.4 3.63,-1.2c0.94,-0.8 1.63,-1.91 2.08,-3.34c0.45,-1.44 0.67,-3.12 0.67,-5.04l0,-0.61c0,-1.88 -0.22,-3.53 -0.67,-4.95c-0.45,-1.45 -1.15,-2.57 -2.11,-3.37c-0.94,-0.82 -2.16,-1.23 -3.66,-1.23c-1.46,0 -2.68,0.41 -3.63,1.23c-0.96,0.8 -1.66,1.92 -2.11,3.37c-0.43,1.42 -0.65,3.07 -0.65,4.95l0,0.61c0,1.92 0.22,3.6 0.65,5.04c0.45,1.45 1.15,2.57 2.11,3.37c0.95,0.78 2.19,1.17 3.69,1.17zm38.42,6.57c-3.13,0 -5.81,-0.69 -8.06,-2.06c-2.25,-1.36 -3.96,-3.26 -5.16,-5.68c-1.19,-2.44 -1.78,-5.24 -1.78,-8.41l0,-0.61c0,-3.15 0.59,-5.93 1.78,-8.35c1.2,-2.44 2.91,-4.35 5.13,-5.71c2.25,-1.39 4.92,-2.08 8.03,-2.08c3.14,0 5.83,0.69 8.06,2.08c2.22,1.36 3.93,3.26 5.12,5.68c1.19,2.42 1.79,5.21 1.79,8.38l0,0.61c0,3.17 -0.6,5.97 -1.79,8.41c-1.19,2.42 -2.9,4.32 -5.12,5.68c-2.23,1.37 -4.9,2.06 -8,2.06zm0,-6.57c1.48,0 2.69,-0.4 3.63,-1.2c0.94,-0.8 1.63,-1.91 2.08,-3.34c0.45,-1.44 0.67,-3.12 0.67,-5.04l0,-0.61c0,-1.88 -0.22,-3.53 -0.67,-4.95c-0.45,-1.45 -1.15,-2.57 -2.11,-3.37c-0.94,-0.82 -2.16,-1.23 -3.66,-1.23c-1.47,0 -2.68,0.41 -3.63,1.23c-0.96,0.8 -1.66,1.92 -2.11,3.37c-0.43,1.42 -0.65,3.07 -0.65,4.95l0,0.61c0,1.92 0.22,3.6 0.65,5.04c0.45,1.45 1.15,2.57 2.11,3.37c0.95,0.78 2.18,1.17 3.69,1.17zm35.16,6.57c-2.95,0 -5.22,-0.81 -6.82,-2.44c-1.58,-1.62 -2.38,-4.19 -2.38,-7.7l0,-16.17l-4.36,0l0,-6.01l4.36,0l0,-7.76l8.53,0l0,7.76l5.83,0l0,6.01l-5.83,0l0,16.14c0,1.23 0.25,2.11 0.76,2.64c0.53,0.52 1.24,0.79 2.14,0.79c0.49,0 1,-0.03 1.52,-0.09a26.1,26.1 0 0 0 1.41,-0.23l0.73,6.18c-0.88,0.25 -1.83,0.45 -2.87,0.61a17.75,17.75 0 0 1 -3.02,0.26l0,0.01z" id="svg_2"/>
 </mask>
 <g class="layer">
  <title>Layer 1</title>
  <path d="m121,274.03c-55.67,7.76 -80.41,-32.61 -80.41,-61.6c-1.02,-16.41 6.36,-51.12 43.8,-59.81c0.55,-0.13 0.92,-0.67 0.77,-1.23c-9.64,-36.69 -6.09,-115.57 87.38,-127.88c22.16,-2.92 66.49,6.31 85.05,39.85c3.98,7.21 67.86,-28.6 75.64,53.03c0.07,0.64 0.74,1.11 1.36,0.91c72.89,-23.07 155.12,142.32 3.92,156.73" fill="#dd2a2a" fill-opacity="0.01" id="svg_5" stroke="#64EE85" stroke-width="15"/>
  <path d="m273.88,130.07c16.55,8.68 29.58,22.3 37.03,38.7c7.45,16.4 8.91,34.67 4.14,51.94c-4.77,17.27 -15.49,32.56 -30.48,43.48c-14.99,10.91 -33.41,16.83 -52.36,16.82c-18.95,-0.01 -37.36,-5.93 -52.34,-16.86s-25.7,-26.21 -30.45,-43.49c-4.76,-17.27 -3.29,-35.54 4.17,-51.94c7.47,-16.4 20.5,-30 37.06,-38.68l8.74,14.79c-13.09,6.85 -23.38,17.6 -29.28,30.55c-5.9,12.96 -7.06,27.39 -3.3,41.04c3.76,13.64 12.22,25.73 24.06,34.36c11.83,8.62 26.38,13.31 41.35,13.31c14.97,0.01 29.52,-4.67 41.36,-13.29c11.85,-8.62 20.31,-20.7 24.08,-34.34c3.77,-13.64 2.62,-28.08 -3.27,-41.04c-5.89,-12.96 -16.18,-23.71 -29.26,-30.57l8.75,-14.78z" fill="#64EE85" id="svg_3"/>
  <path d="m232.6,119.97l0,74.49" id="svg_4" stroke="#64EE85" stroke-linecap="square" stroke-width="14"/>
 </g>
</svg>