<svg xmlns="http://www.w3.org/2000/svg" width="17" height="16" viewBox="0 0 17 16" fill="none">
    <path d="M11.8333 5.99996C11.8333 5.65874 11.7031 5.31753 11.4428 5.05719C11.1825 4.79684 10.8412 4.66667 10.5 4.66667M10.5 10C12.7091 10 14.5 8.20914 14.5 6C14.5 3.79086 12.7091 2 10.5 2C8.29086 2 6.5 3.79086 6.5 6C6.5 6.18245 6.51222 6.36205 6.53587 6.53802C6.57478 6.82745 6.59424 6.97217 6.58114 7.06373C6.5675 7.1591 6.55013 7.2105 6.50313 7.2946C6.458 7.37533 6.37847 7.45486 6.21942 7.61391L2.81242 11.0209C2.69712 11.1362 2.63947 11.1939 2.59824 11.2611C2.56169 11.3208 2.53475 11.3858 2.51842 11.4538C2.5 11.5306 2.5 11.6121 2.5 11.7752V12.9333C2.5 13.3067 2.5 13.4934 2.57266 13.636C2.63658 13.7614 2.73856 13.8634 2.86401 13.9273C3.00661 14 3.1933 14 3.56667 14H5.16667V12.6667H6.5V11.3333H7.83333L8.88609 10.2806C9.04514 10.1215 9.12467 10.042 9.2054 9.99687C9.2895 9.94987 9.3409 9.9325 9.43627 9.91886C9.52783 9.90576 9.67255 9.92522 9.96198 9.96413C10.1379 9.98778 10.3175 10 10.5 10Z" stroke="#C7F064" stroke-width="2" stroke-linecap="round" stroke-linejoin="round"/>
</svg>